<?xml version="1.0" encoding="UTF-8" standalone="no"?>
<!-- Created with Inkscape (http://www.inkscape.org/) -->

<svg
   id="svg2"
   version="1.1"
   inkscape:version="1.1 (c68e22c387, 2021-05-23)"
   xml:space="preserve"
   width="31.672495mm"
   height="30.985743mm"
   viewBox="0 0 112.22538 109.792"
   sodipodi:docname="Extension.svg"
   xmlns:inkscape="http://www.inkscape.org/namespaces/inkscape"
   xmlns:sodipodi="http://sodipodi.sourceforge.net/DTD/sodipodi-0.dtd"
   xmlns="http://www.w3.org/2000/svg"
   xmlns:svg="http://www.w3.org/2000/svg"
   xmlns:rdf="http://www.w3.org/1999/02/22-rdf-syntax-ns#"
   xmlns:cc="http://creativecommons.org/ns#"
   xmlns:dc="http://purl.org/dc/elements/1.1/"><metadata
     id="metadata8"><rdf:RDF><cc:Work
         rdf:about=""><dc:format>image/svg+xml</dc:format><dc:type
           rdf:resource="http://purl.org/dc/dcmitype/StillImage" /></cc:Work></rdf:RDF></metadata><defs
     id="defs6"><clipPath
       clipPathUnits="userSpaceOnUse"
       id="clipPath16"><path
         d="M 0,841.89 H 595.28 V 0 H 0 Z"
         id="path18"
         inkscape:connector-curvature="0" /></clipPath></defs><sodipodi:namedview
     pagecolor="#ffffff"
     bordercolor="#666666"
     borderopacity="1"
     objecttolerance="10"
     gridtolerance="10"
     guidetolerance="10"
     inkscape:pageopacity="0"
     inkscape:pageshadow="2"
     inkscape:window-width="1920"
     inkscape:window-height="1057"
     id="namedview4"
     showgrid="false"
     inkscape:zoom="1.7940585"
     inkscape:cx="105.62643"
     inkscape:cy="61.034799"
     inkscape:window-x="-8"
     inkscape:window-y="-8"
     inkscape:window-maximized="1"
     inkscape:current-layer="g12"
     units="mm"
     fit-margin-top="0"
     fit-margin-left="0"
     fit-margin-right="0"
     fit-margin-bottom="0"
     inkscape:pagecheckerboard="0"
     inkscape:document-units="mm" /><g
     id="g10"
     inkscape:groupmode="layer"
     inkscape:label="AMEOS_logo_FINAL"
     transform="matrix(1.25,0,0,-1.25,-266.48588,574.67063)"><g
       id="g12"><g
         id="g14"
         clip-path="url(#clipPath16)"><g
           id="g20"
           transform="translate(266.7695,384.2939)"><path
             d="m 0,0 -26.18,-12.391 -4.467,9.881 c 0,0 8.59,13.102 23.555,23.37 z"
             style="fill:#dadbdc;fill-opacity:1;fill-rule:nonzero;stroke:none"
             id="path22"
             inkscape:connector-curvature="0" /></g><g
           id="g24"
           transform="translate(290.2764,421.4365)"><path
             d="m 0,0 -17.935,38.3 -20.23,-9.433 3.467,-0.038 11.546,-30.563 c 0,0 7.645,2.656 23.152,1.734"
             style="fill:#dadbdc;fill-opacity:1;fill-rule:nonzero;stroke:none"
             id="path26"
             inkscape:connector-curvature="0" /></g><g
           id="g28"
           transform="translate(228.7637,398.2676)"><path
             d="M 0,0 -15.575,33.397 18.807,49.428 Z"
             style="fill:#8a8b8d;fill-opacity:1;fill-rule:nonzero;stroke:none"
             id="path30"
             inkscape:connector-curvature="0" /></g><g
           id="g32"
           transform="translate(268.502,410.5635)"><path
             d="M 0,0 11.042,-28.779 H 1.764 l -6.121,17.476 -2.226,7.568 C -3.433,-1.273 0,0 0,0"
             style="fill:#99c027;fill-opacity:1;fill-rule:nonzero;stroke:none"
             id="path34"
             inkscape:connector-curvature="0" /></g><g
           id="g36"
           transform="translate(243.311,408.0498)"><path
             d="m 0,0 c 0,0 5.888,17.562 8.983,27.345 1.134,-3.963 3.624,-12.089 6.123,-19.65 0,0 1.742,1.215 6.934,2.942 L 10.557,40.579 H 6.684 l -24.552,-66.845 h 8.491 c 0,0 19.815,38.491 69.035,35.266 0,0 -41.82,12.071 -63.109,-18.531 z"
             style="fill:#99c027;fill-opacity:1;fill-rule:nonzero;stroke:none"
             id="path38"
             inkscape:connector-curvature="0" /></g><g
           id="g44"
           transform="translate(312.9854,413.4346)" /></g></g></g></svg>
